<?xml version="1.0" encoding="utf-8"?>
<!-- Generator: Adobe Illustrator 27.5.0, SVG Export Plug-In . SVG Version: 6.00 Build 0)  -->
<svg version="1.1" xmlns="http://www.w3.org/2000/svg" xmlns:xlink="http://www.w3.org/1999/xlink" x="0px" y="0px"
	 viewBox="0 0 500 500" style="enable-background:new 0 0 500 500;" xml:space="preserve">
<g id="BACKGROUND">
</g>
<g id="OBJECTS">
	<g>
		<path style="fill:#E1F5FE;" d="M55.772,431.591h378.624c10.584-24.787,16.448-52.071,16.448-80.727
			c0-101.779-73.902-186.284-170.969-202.817c-0.964-6.873-2.511-13.558-4.591-20.005c22.063-5.926,38.31-26.056,38.31-49.991
			c0-28.591-23.177-51.768-51.768-51.768c-21.283,0-39.558,12.848-47.514,31.207c-15.947-7.874-33.898-12.305-52.886-12.305
			c-66.067,0-119.625,53.558-119.625,119.625c0,29.557,10.725,56.604,28.488,77.478c-19.618,31.517-30.963,68.718-30.963,108.575
			C39.325,379.52,45.189,406.804,55.772,431.591z"/>
		<g>
			<g>
				<g>
					<g>
						<path style="fill:#0288D1;" d="M204.635,429.335c0.145-7.052,1.245-14.178,3.265-21.277c-0.912,0.368-1.794,0.779-2.645,1.229
							c-0.565,2.625-1.093,5.275-2.18,7.864c-0.083,0.198-0.566,0.192-0.576,0c-0.113-2.17,0.225-4.399,0.635-6.618
							c-1.373,0.893-2.638,1.897-3.777,2.996c0.643,2.166,1.316,4.331,1.867,6.516c0.587,2.333,1.395,4.628,1.537,7.041
							c0.016,0.277-0.568,0.468-0.735,0.2c-1.34-2.149-1.994-4.491-2.931-6.757c-0.652-1.576-1.199-3.186-1.75-4.793
							c-1.423,1.779-2.55,3.739-3.317,5.832c2.347,2.432,4.279,5.043,5.914,7.767H204.635z"/>
						<path style="fill:#01579B;" d="M208.323,429.335c0.007-0.69,0.018-1.381,0.037-2.073c0.106-3.87,0.392-7.774,0.958-11.67
							c0.283-1.948,0.53-3.907,0.979-5.856c0.209-0.907,0.439-1.812,0.672-2.716c-0.526,0.147-1.046,0.305-1.556,0.478
							c-0.09,0.307-0.18,0.613-0.266,0.92c-1.967,6.971-3.043,13.983-3.212,20.918H208.323z"/>
						<path style="fill:#01579B;" d="M213.626,429.335c0.173-7.642-0.032-15.251-0.613-22.813c-0.314,0.065-0.626,0.134-0.936,0.208
							c-0.139,1.282-0.253,2.565-0.404,3.842c-0.25,2.121-0.49,4.238-0.681,6.356c-0.373,4.151-0.521,8.288-0.464,12.406H213.626z"
							/>
						<path style="fill:#0288D1;" d="M233.682,429.335c2.808-3.683,6.009-7.26,9.565-10.685c-0.23-0.41-0.475-0.812-0.733-1.208
							c-0.839,0.933-1.639,1.932-2.728,2.722c-0.189,0.137-0.533,0.023-0.48-0.144c0.378-1.19,1.549-2.398,2.491-3.473
							c0.018-0.021,0.038-0.042,0.056-0.063c-0.346-0.473-0.712-0.934-1.098-1.383c-0.177,0.275-0.357,0.549-0.531,0.825
							c-1.315,2.081-2.504,4.197-3.99,6.239c-0.215,0.296-0.923,0.268-0.825-0.078c0.799-2.804,2.299-5.632,4.036-8.388
							c-0.786-0.775-1.632-1.505-2.536-2.183c-2.062,5.934-3.999,11.875-5.869,17.819H233.682z"/>
						<path style="fill:#0288D1;" d="M215.066,429.335h4.878c3.195-7.097,7.005-14.121,11.407-21.022
							c-0.826-0.355-1.678-0.673-2.551-0.955c-0.16,0.241-0.326,0.482-0.483,0.724c-1.581,2.427-3.092,4.878-4.432,7.351
							c-1.359,2.509-2.405,5.108-4.001,7.567c-0.236,0.363-0.989,0.283-0.934-0.088c0.384-2.552,1.693-5.197,2.915-7.7
							c1.245-2.55,2.607-5.078,4.183-7.574c0.188-0.298,0.385-0.594,0.578-0.892c-0.8-0.193-1.616-0.356-2.445-0.486
							c-0.279,0.821-0.496,1.646-0.719,2.479c-0.089,0.332-0.848,0.425-0.889,0.081c-0.106-0.895,0.003-1.819,0.256-2.739
							c-0.719-0.08-1.447-0.136-2.184-0.167c-1.017,3.339-1.788,6.678-2.566,10.025c-0.099,0.424-0.944,0.396-0.937,0
							c0.061-3.322,0.663-6.698,1.582-10.048c-1.466,0.027-2.903,0.155-4.301,0.375c0.062,0.788,0.124,1.575,0.178,2.364
							C215.074,415.5,215.214,422.405,215.066,429.335z"/>
						<path style="fill:#01579B;" d="M245.705,429.335c0.029-0.426,0.044-0.855,0.043-1.288c-0.001-0.416-0.02-0.828-0.048-1.238
							c-1.004,0.829-1.983,1.672-2.939,2.526H245.705z"/>
						<path style="fill:#01579B;" d="M240.288,429.335c1.631-1.56,3.353-3.082,5.162-4.558c-0.132-0.742-0.309-1.471-0.526-2.186
							c-0.485,0.456-0.959,0.917-1.418,1.386c-0.922,0.943-1.765,2.156-3.046,2.909c-0.15,0.088-0.359,0.022-0.337-0.101
							c0.181-1.055,1.344-2.202,2.182-3.139c0.699-0.781,1.429-1.557,2.192-2.317c-0.13-0.341-0.266-0.679-0.415-1.012
							c-2.951,2.91-5.642,5.925-8.05,9.019H240.288z"/>
						<path style="fill:#01579B;" d="M198.646,429.335c-1.424-2.338-3.059-4.593-4.971-6.715c-0.281,0.927-0.491,1.878-0.628,2.848
							c1.247,1.193,2.315,2.483,3.106,3.867H198.646z"/>
						<path style="fill:#01579B;" d="M195.257,429.335c-0.792-0.686-1.579-1.374-2.377-2.056c-0.013,0.293-0.022,0.587-0.021,0.882
							c0.001,0.394,0.015,0.785,0.041,1.173H195.257z"/>
						<path style="fill:#01579B;" d="M224.6,429.335c0.594-1.505,1.208-3.009,1.844-4.511c1.299-3.063,2.725-6.115,4.201-9.157
							c0.984-2.029,1.897-4.155,3.058-6.203c-0.203-0.111-0.404-0.224-0.611-0.33c-4.245,6.64-7.93,13.387-11.066,20.201H224.6z"/>
						<path style="fill:#01579B;" d="M228.869,429.335c1.991-6.352,4.054-12.702,6.263-19.041c-0.208-0.131-0.423-0.254-0.635-0.38
							c-0.322,0.625-0.65,1.249-0.954,1.872c-0.827,1.692-1.643,3.386-2.427,5.084c-1.908,4.134-3.61,8.294-5.159,12.465H228.869z"
							/>
					</g>
				</g>
				<g>
					<g>
						<path style="fill:#0288D1;" d="M384.982,429.633c0.173-8.39,1.482-16.87,3.885-25.315c-1.086,0.437-2.135,0.927-3.148,1.462
							c-0.672,3.123-1.301,6.276-2.593,9.357c-0.099,0.235-0.674,0.228-0.686,0c-0.134-2.582,0.268-5.234,0.755-7.874
							c-1.633,1.063-3.139,2.257-4.494,3.565c0.765,2.577,1.566,5.154,2.221,7.753c0.699,2.776,1.66,5.507,1.829,8.378
							c0.02,0.33-0.676,0.557-0.875,0.237c-1.595-2.557-2.372-5.343-3.488-8.04c-0.776-1.876-1.427-3.791-2.082-5.702
							c-1.693,2.117-3.034,4.449-3.946,6.939c2.792,2.894,5.091,6,7.037,9.241H384.982z"/>
						<path style="fill:#01579B;" d="M389.37,429.633c0.009-0.822,0.022-1.643,0.044-2.466c0.126-4.604,0.466-9.249,1.14-13.885
							c0.337-2.318,0.63-4.648,1.165-6.968c0.249-1.08,0.522-2.156,0.8-3.232c-0.626,0.175-1.244,0.362-1.851,0.569
							c-0.107,0.365-0.214,0.729-0.317,1.094c-2.34,8.295-3.62,16.637-3.822,24.888H389.37z"/>
						<path style="fill:#01579B;" d="M395.679,429.633c0.205-9.092-0.038-18.146-0.729-27.143c-0.374,0.077-0.745,0.16-1.113,0.247
							c-0.166,1.526-0.301,3.052-0.481,4.572c-0.298,2.524-0.583,5.042-0.81,7.563c-0.444,4.938-0.62,9.862-0.552,14.761H395.679z"
							/>
						<path style="fill:#0288D1;" d="M419.542,429.633c3.341-4.382,7.15-8.638,11.381-12.714c-0.273-0.488-0.565-0.966-0.872-1.437
							c-0.998,1.11-1.95,2.299-3.246,3.239c-0.225,0.163-0.635,0.028-0.571-0.172c0.45-1.416,1.843-2.854,2.964-4.132
							c0.022-0.025,0.045-0.05,0.067-0.075c-0.411-0.563-0.847-1.112-1.306-1.646c-0.211,0.327-0.425,0.654-0.632,0.981
							c-1.565,2.476-2.979,4.994-4.747,7.423c-0.256,0.352-1.099,0.319-0.981-0.092c0.951-3.336,2.736-6.701,4.801-9.98
							c-0.935-0.922-1.942-1.791-3.017-2.597c-2.454,7.06-4.758,14.128-6.983,21.201H419.542z"/>
						<path style="fill:#0288D1;" d="M397.392,429.633h5.804c3.802-8.444,8.334-16.801,13.572-25.012
							c-0.982-0.423-1.996-0.801-3.035-1.136c-0.191,0.287-0.387,0.573-0.575,0.861c-1.881,2.887-3.679,5.804-5.273,8.746
							c-1.617,2.985-2.862,6.078-4.76,9.004c-0.281,0.432-1.177,0.336-1.111-0.105c0.457-3.036,2.014-6.184,3.468-9.162
							c1.481-3.034,3.102-6.042,4.977-9.012c0.224-0.355,0.459-0.707,0.687-1.061c-0.952-0.23-1.922-0.423-2.909-0.578
							c-0.332,0.976-0.59,1.958-0.855,2.949c-0.105,0.395-1.009,0.506-1.058,0.096c-0.127-1.065,0.003-2.164,0.304-3.259
							c-0.856-0.095-1.722-0.162-2.598-0.198c-1.21,3.973-2.128,7.946-3.053,11.927c-0.117,0.505-1.123,0.471-1.115,0
							c0.073-3.952,0.789-7.969,1.883-11.955c-1.744,0.033-3.454,0.185-5.117,0.446c0.074,0.937,0.148,1.874,0.212,2.813
							C397.402,413.171,397.568,421.387,397.392,429.633z"/>
						<path style="fill:#01579B;" d="M433.847,429.633c0.034-0.507,0.052-1.018,0.051-1.532c-0.001-0.495-0.024-0.985-0.057-1.473
							c-1.195,0.987-2.36,1.989-3.497,3.005H433.847z"/>
						<path style="fill:#01579B;" d="M427.402,429.633c1.94-1.856,3.989-3.667,6.142-5.423c-0.157-0.882-0.368-1.75-0.626-2.601
							c-0.576,0.543-1.141,1.092-1.687,1.65c-1.097,1.122-2.1,2.565-3.624,3.461c-0.178,0.105-0.427,0.027-0.401-0.121
							c0.215-1.255,1.599-2.62,2.596-3.735c0.832-0.93,1.7-1.853,2.608-2.757c-0.154-0.405-0.317-0.808-0.493-1.204
							c-3.512,3.462-6.714,7.049-9.578,10.73H427.402z"/>
						<path style="fill:#01579B;" d="M377.856,429.633c-1.694-2.782-3.639-5.465-5.914-7.99c-0.334,1.103-0.584,2.235-0.747,3.389
							c1.484,1.42,2.754,2.954,3.695,4.601H377.856z"/>
						<path style="fill:#01579B;" d="M373.824,429.633c-0.943-0.816-1.879-1.635-2.828-2.446c-0.016,0.349-0.026,0.698-0.025,1.05
							c0.001,0.468,0.018,0.934,0.048,1.396H373.824z"/>
						<path style="fill:#01579B;" d="M408.736,429.633c0.707-1.791,1.437-3.58,2.194-5.367c1.545-3.645,3.242-7.275,4.998-10.895
							c1.171-2.414,2.258-4.943,3.639-7.38c-0.242-0.132-0.481-0.267-0.727-0.393c-5.05,7.901-9.435,15.928-13.166,24.035H408.736z"
							/>
						<path style="fill:#01579B;" d="M413.815,429.633c2.369-7.558,4.824-15.112,7.452-22.655c-0.247-0.155-0.503-0.303-0.756-0.452
							c-0.383,0.744-0.773,1.486-1.135,2.227c-0.984,2.013-1.955,4.029-2.887,6.049c-2.27,4.919-4.295,9.868-6.138,14.831H413.815z"
							/>
					</g>
				</g>
				<g>
					<g>
						<path style="fill:#0288D1;" d="M64.972,431.145c0.245-11.892,2.1-23.91,5.507-35.88c-1.539,0.62-3.026,1.314-4.461,2.072
							c-0.953,4.427-1.844,8.896-3.676,13.261c-0.14,0.333-0.955,0.323-0.972,0c-0.19-3.659,0.38-7.418,1.07-11.161
							c-2.315,1.507-4.449,3.199-6.37,5.053c1.084,3.653,2.22,7.304,3.147,10.988c0.991,3.934,2.352,7.804,2.593,11.874
							c0.028,0.468-0.958,0.789-1.24,0.337c-2.261-3.624-3.362-7.573-4.943-11.395c-1.099-2.658-2.022-5.373-2.951-8.082
							c-2.4,3-4.299,6.306-5.593,9.835c3.958,4.102,7.215,8.504,9.973,13.098H64.972z"/>
						<path style="fill:#01579B;" d="M71.192,431.145c0.012-1.164,0.031-2.329,0.063-3.495c0.178-6.526,0.66-13.109,1.615-19.68
							c0.477-3.285,0.893-6.588,1.651-9.876c0.353-1.53,0.739-3.056,1.134-4.58c-0.887,0.248-1.763,0.514-2.624,0.806
							c-0.152,0.517-0.303,1.034-0.449,1.551c-3.317,11.756-5.131,23.579-5.417,35.274H71.192z"/>
						<path style="fill:#01579B;" d="M80.134,431.145c0.291-12.887-0.054-25.719-1.034-38.47c-0.53,0.109-1.056,0.226-1.578,0.351
							c-0.235,2.162-0.427,4.325-0.682,6.48c-0.422,3.577-0.827,7.146-1.148,10.719c-0.629,6.999-0.878,13.977-0.783,20.921H80.134z
							"/>
						<path style="fill:#0288D1;" d="M113.955,431.145c4.735-6.21,10.133-12.243,16.13-18.019c-0.387-0.691-0.801-1.37-1.236-2.037
							c-1.415,1.574-2.764,3.258-4.601,4.591c-0.318,0.231-0.9,0.039-0.81-0.243c0.638-2.007,2.612-4.044,4.201-5.856
							c0.031-0.035,0.063-0.07,0.094-0.106c-0.583-0.798-1.2-1.576-1.851-2.332c-0.299,0.464-0.602,0.926-0.896,1.391
							c-2.218,3.509-4.223,7.078-6.728,10.521c-0.363,0.498-1.557,0.452-1.391-0.131c1.347-4.728,3.878-9.497,6.805-14.146
							c-1.325-1.307-2.752-2.538-4.277-3.681c-3.477,10.006-6.744,20.024-9.897,30.049H113.955z"/>
						<path style="fill:#0288D1;" d="M82.562,431.145h8.227c5.388-11.967,11.812-23.812,19.236-35.45
							c-1.392-0.599-2.829-1.135-4.301-1.611c-0.271,0.407-0.549,0.813-0.815,1.221c-2.665,4.092-5.214,8.227-7.473,12.396
							c-2.292,4.23-4.056,8.614-6.747,12.761c-0.398,0.613-1.669,0.477-1.574-0.148c0.648-4.304,2.855-8.764,4.916-12.985
							c2.099-4.3,4.396-8.564,7.053-12.772c0.317-0.503,0.65-1.002,0.974-1.504c-1.35-0.326-2.725-0.6-4.123-0.819
							c-0.47,1.384-0.837,2.775-1.212,4.18c-0.149,0.559-1.431,0.716-1.5,0.136c-0.18-1.509,0.005-3.067,0.431-4.619
							c-1.213-0.135-2.441-0.23-3.683-0.281c-1.715,5.631-3.015,11.262-4.328,16.905c-0.166,0.716-1.592,0.667-1.58,0
							c0.104-5.602,1.118-11.294,2.668-16.944c-2.472,0.046-4.895,0.262-7.252,0.633c0.105,1.328,0.21,2.656,0.301,3.987
							C82.575,407.813,82.812,419.457,82.562,431.145z"/>
						<path style="fill:#01579B;" d="M134.23,431.145c0.049-0.719,0.074-1.443,0.073-2.172c-0.002-0.701-0.034-1.396-0.081-2.087
							c-1.694,1.399-3.344,2.82-4.957,4.259H134.23z"/>
						<path style="fill:#01579B;" d="M125.096,431.145c2.75-2.631,5.653-5.197,8.705-7.686c-0.223-1.251-0.521-2.48-0.887-3.687
							c-0.817,0.77-1.617,1.547-2.391,2.338c-1.555,1.59-2.976,3.635-5.136,4.905c-0.253,0.149-0.605,0.038-0.569-0.171
							c0.305-1.779,2.266-3.713,3.679-5.293c1.179-1.318,2.41-2.626,3.697-3.908c-0.218-0.575-0.449-1.145-0.699-1.707
							c-4.977,4.907-9.515,9.991-13.575,15.208H125.096z"/>
						<path style="fill:#01579B;" d="M54.873,431.145c-2.401-3.943-5.158-7.745-8.382-11.324c-0.474,1.564-0.827,3.168-1.059,4.803
							c2.103,2.012,3.904,4.187,5.237,6.521H54.873z"/>
						<path style="fill:#01579B;" d="M49.158,431.145c-1.336-1.157-2.663-2.317-4.009-3.467c-0.022,0.494-0.036,0.989-0.035,1.488
							c0.001,0.664,0.026,1.323,0.068,1.979H49.158z"/>
						<path style="fill:#01579B;" d="M98.64,431.145c1.002-2.538,2.037-5.074,3.11-7.606c2.19-5.166,4.595-10.312,7.084-15.442
							c1.66-3.422,3.2-7.006,5.157-10.46c-0.342-0.187-0.682-0.378-1.03-0.557c-7.158,11.198-13.372,22.576-18.66,34.066H98.64z"/>
						<path style="fill:#01579B;" d="M105.839,431.145c3.358-10.712,6.837-21.419,10.561-32.109
							c-0.351-0.22-0.713-0.429-1.071-0.641c-0.542,1.055-1.096,2.107-1.609,3.157c-1.395,2.854-2.771,5.71-4.092,8.573
							c-3.217,6.972-6.087,13.987-8.7,21.02H105.839z"/>
					</g>
				</g>
			</g>
			<g>
				<polygon style="fill:#FFCCBC;" points="241.691,127.122 221.463,163.213 170.146,172.727 179.972,184.595 231.052,173.606 
					247.109,128.62 				"/>
				<path style="fill:#FFCCBC;" d="M255.978,125.206c-1.612-1.061-3.401-1.455-5.115-1.288c2.01-0.872,4.402-0.659,6.5,0.723
					c1.438,0.947,2.657-1.448,1.227-2.389c-2.605-1.715-5.609-1.953-8.223-0.994c2.198-1.59,5.156-1.62,7.687,0.046
					c1.438,0.947,2.657-1.448,1.227-2.389c-2.648-1.743-5.708-1.962-8.352-0.948c2.224-1.824,5.345-1.942,7.997-0.196
					c1.438,0.947,2.657-1.447,1.227-2.389c-3.595-2.367-7.948-1.919-10.987,0.609c-3.747,1.04-6.811,4.316-7.528,8.143
					c-0.185,0.989-0.224,2.022,0.052,2.988c0.276,0.966,0.894,1.86,1.785,2.325c2.108,1.102,4.411-0.394,5.155-2.435
					c1.849-1.16,4.237-1.112,6.295,0.243C256.159,128.067,257.205,126.014,255.978,125.206z"/>
				<g>
					<g>
						<polygon style="fill:#1E88E5;" points="254.503,120.09 214.559,420.513 218.322,424.275 423.901,424.275 446.551,233.849 
							460.082,120.09 456.319,116.327 						"/>
						<path style="fill:#64B5F6;" d="M224.383,337.923l-9.824,82.59h205.579l22.65-190.426
							c-73.369,28.901-143.844,63.538-215.73,106.268C226.155,336.861,225.265,337.386,224.383,337.923z"/>
						<path style="fill:#90CAF9;" d="M250.74,116.327l-26.357,221.596c0.882-0.537,1.772-1.062,2.675-1.568
							c71.886-42.73,142.361-77.368,215.73-106.268l13.531-113.76H250.74z"/>
						<polygon style="fill:#FFFFFF;" points="409.045,408.871 228.422,408.871 261.834,127.969 442.456,127.969 						"/>
					</g>
					<g>
						<path style="fill:#78909C;" d="M382.904,159.471H270.641c-2.408,0-2.412,3.742,0,3.742h112.262
							C385.311,163.213,385.315,159.471,382.904,159.471z"/>
						<path style="fill:#FFFFFF;stroke:#78909C;stroke-miterlimit:10;" d="M428.162,171.053l2.094-17.603
							c0.205-1.722-1.14-3.237-2.875-3.237h-24.456c-1.467,0-2.702,1.097-2.875,2.553l-2.094,17.603
							c-0.205,1.722,1.14,3.237,2.875,3.237h24.456C426.753,173.606,427.988,172.51,428.162,171.053z"/>
						<path style="fill:#78909C;" d="M376.748,213.172H264.485c-2.408,0-2.412,3.742,0,3.742h112.262
							C379.155,216.914,379.159,213.172,376.748,213.172z"/>
						<path style="fill:#FFFFFF;stroke:#78909C;stroke-miterlimit:10;" d="M422.006,224.755l2.094-17.603
							c0.205-1.722-1.14-3.237-2.875-3.237h-24.456c-1.467,0-2.702,1.097-2.875,2.553l-2.094,17.603
							c-0.205,1.722,1.14,3.237,2.875,3.237h24.456C420.597,227.307,421.832,226.211,422.006,224.755z"/>
						<path style="fill:#78909C;" d="M370.592,266.873H258.329c-2.408,0-2.412,3.742,0,3.742h112.262
							C372.999,270.615,373.003,266.873,370.592,266.873z"/>
						<path style="fill:#FFFFFF;stroke:#78909C;stroke-miterlimit:10;" d="M415.85,278.456l2.094-17.603
							c0.205-1.722-1.14-3.237-2.875-3.237h-24.456c-1.467,0-2.702,1.097-2.875,2.553l-2.094,17.603
							c-0.205,1.722,1.14,3.237,2.875,3.237h24.456C414.442,281.009,415.676,279.912,415.85,278.456z"/>
						<path style="fill:#78909C;" d="M364.436,320.575H252.173c-2.408,0-2.412,3.742,0,3.742h112.262
							C366.843,324.317,366.847,320.575,364.436,320.575z"/>
						<path style="fill:#FFFFFF;stroke:#78909C;stroke-miterlimit:10;" d="M409.694,332.157l2.094-17.603
							c0.205-1.722-1.14-3.237-2.875-3.237h-24.456c-1.467,0-2.702,1.097-2.875,2.553l-2.094,17.603
							c-0.205,1.722,1.14,3.237,2.875,3.237h24.456C408.286,334.71,409.52,333.613,409.694,332.157z"/>
						<path style="fill:#78909C;" d="M358.28,374.276H246.017c-2.408,0-2.412,3.742,0,3.742H358.28
							C360.688,378.018,360.691,374.276,358.28,374.276z"/>
						<path style="fill:#FFFFFF;stroke:#78909C;stroke-miterlimit:10;" d="M403.538,385.858l2.094-17.603
							c0.205-1.722-1.14-3.237-2.875-3.237h-24.456c-1.467,0-2.702,1.097-2.875,2.553l-2.094,17.603
							c-0.205,1.722,1.14,3.237,2.875,3.237h24.456C402.13,388.411,403.364,387.315,403.538,385.858z"/>
					</g>
					<path style="fill:#1976D2;" d="M426.32,143.742c-3.272,4.3-6.543,8.6-9.815,12.899c-1.401,1.841-2.707,4.123-4.362,5.733
						c-1.324,1.288-1.323,1.977-3.214,0.992c-1.056-0.55-2.356-2.239-3.179-3.022c-1.745-1.659-4.396,0.983-2.646,2.646
						c3.58,3.403,6.627,8.449,10.635,3.423c5.421-6.799,10.547-13.862,15.813-20.782
						C431.009,143.714,427.761,141.848,426.32,143.742z"/>
					<path style="fill:#1976D2;" d="M415.747,249.295c-3.272,4.3-6.543,8.6-9.815,12.899c-1.401,1.841-2.707,4.123-4.362,5.733
						c-1.324,1.288-1.323,1.977-3.214,0.992c-1.056-0.55-2.355-2.239-3.179-3.022c-1.745-1.659-4.396,0.983-2.646,2.646
						c3.58,3.403,6.627,8.449,10.635,3.422c5.421-6.799,10.547-13.862,15.813-20.782
						C420.436,249.268,417.188,247.401,415.747,249.295z"/>
					<path style="fill:#1976D2;" d="M424.201,195.661c-3.272,4.3-6.543,8.6-9.815,12.899c-1.401,1.841-2.707,4.123-4.362,5.733
						c-1.324,1.288-1.323,1.977-3.214,0.992c-1.056-0.55-2.355-2.239-3.179-3.022c-1.745-1.659-4.396,0.983-2.646,2.646
						c3.58,3.403,6.627,8.449,10.635,3.423c5.421-6.799,10.547-13.862,15.813-20.782
						C428.89,195.633,425.642,193.767,424.201,195.661z"/>
				</g>
				<g>
					<g>
						<path style="fill:#455A64;" d="M131.854,375.288l1.774-8.15l0.144-12.336c0,0-4.722-1.916-10.092-1.885l0.118,20.681
							L131.854,375.288z"/>
						<path style="fill:#B0BEC5;" d="M123.867,385.903c5.029-0.052,8.016-5.58,7.987-10.615l0,0
							c-0.029-5.035-3.061-7.672-8.091-7.667L123.867,385.903z"/>
					</g>
					<g>
						<path style="fill:#26C6DA;" d="M183.126,246.88c12.25,29.101,19.506,60.296,21.358,91.816
							c-3.845,1.851-8.967,2.293-13.133,1.364c-11.637-16.842-20.209-35.694-25.82-55.381c-6.493-5.293-10.231-13.057-9.396-21.392
							c0.835-8.335,6.073-16.103,13.487-20.002c2.491-1.31,5.324-2.215,8.106-1.784C180.51,241.932,182.034,244.285,183.126,246.88z
							"/>
						<path style="fill:#26C6DA;" d="M143.496,239.387c-7.633,5.821-12.222,15.009-13.908,24.459
							c-1.685,9.45-0.697,19.191,1.205,28.599c4.024,19.906,12.157,38.972,23.739,55.654c4.323,0.869,9.054-0.067,12.635-2.642
							c-1.564-23.031-2.891-45.194-4.454-68.225c-0.457-6.729,2.919-13.133,2.56-19.868c-0.359-6.735-3.401-13.716-9.281-17.019
							C152.534,238.403,146.651,236.98,143.496,239.387z"/>
						<path style="fill:#F57C00;" d="M178.498,111.952c6.61,0.627,12.676,5.271,15.007,11.488s0.813,13.704-3.756,18.522
							c3.876,4.444,4.601,11.717,2.894,17.362c-1.707,5.645-5.688,10.395-10.38,13.967c-7.039,5.36-15.861,8.336-24.708,8.334
							c-4.344,0.214-8.786,0.443-12.966-0.758s-8.134-3.865-9.922-7.829c-2.237-4.962-0.325-11.424,4.252-14.37
							c-1.28-0.214-2.968-0.345-4.126-0.931c-1.158-0.587-2.178-1.566-2.524-2.817c-0.617-2.227,0.982-4.403,2.479-6.163
							c1.957-2.301,3.914-4.602,5.871-6.903c-2.212-1.551-3.115-3.964-2.889-6.656c0.226-2.692,1.455-5.197,2.868-7.5
							c6.631-10.806,17.98-18.599,30.446-20.908c1.917-0.355,3.989-0.567,5.74,0.293
							C178.533,107.944,179.515,110.288,178.498,111.952z"/>
						<path style="fill:#AFB42B;" d="M183.747,208.076c3.331,15.194,4.203,30.917,2.563,46.391
							c-0.052,0.446-0.104,0.913-0.394,1.256c-0.332,0.394-0.872,0.529-1.38,0.623c-16.024,3.093-38.209-0.337-51.203-10.218
							c11.956-9.725,22.206-27.591,17.483-42.256c-1.671-5.189-4.442-9.953-6.445-15.028c-1.993-5.075-3.197-10.762-1.567-15.972
							c0.187-0.602,0.425-1.214,0.872-1.671c0.519-0.529,1.266-0.778,1.972-0.986c11.437-3.282,22.094,0.205,31.51,6.527
							c1.246,0.837,2.372,1.835,3.344,2.979c3.53,4.154,8.034,8.601,9.783,13.773c0.332,0.976,0.571,1.972,0.675,2.999
							c0.021,0.135,0.031,0.26,0.042,0.394C191.375,201.714,188.459,206.966,183.747,208.076z"/>
						<g>
							<g>
								<path style="fill:#FFCCBC;" d="M156.689,151.589c0.156,5.841-0.318,11.763-1.406,17.56
									c-0.374-0.563-1.923-0.064-2.299,0.563c-0.376,0.627-0.347,1.499-0.077,2.152c0.27,0.653,0.739,1.13,1.214,1.562
									c3.405,3.1,7.695,4.736,12.063,4.601c0.801-0.025,1.625-0.114,2.373-0.539c0.747-0.425,1.411-1.249,1.558-2.239
									c0.159-1.072-0.321-2.109-0.993-2.73c-0.672-0.621-1.513-0.907-2.335-1.182c0.439-4.37,0.49-8.495,0.929-12.865
									L156.689,151.589z"/>
								<path style="fill:#FFAB91;" d="M163.731,168.583c0.987,0.92,2.015,1.754,3.076,2.511c0.417-4.28,0.478-8.334,0.909-12.623
									l-11.027-6.882c0.027,1.026,0.034,2.055,0.021,3.085c-0.039,3.044,0.834,5.916,2.384,8.137
									C160.528,164.868,161.955,166.928,163.731,168.583z"/>
							</g>
							<g>
								<path style="fill:#FFCCBC;" d="M186.02,133.1c-0.44,9.7-4.07,28.79-12.1,31.23c-3.32,1.01-15.34-7.24-17.53-11.15
									c-2.45,0.2-4.11-0.95-5.07-3.21c-0.32-0.73-0.52-1.53-0.58-2.34c0.97-0.12,1.92-0.27,2.87-0.47
									c0.92-0.19,1.83-0.42,2.72-0.68c9.02-2.62,16.83-8.85,21.05-17.86c2.74,0.67,5.4,1.61,7.54,2.63
									C185.63,131.59,186.05,132.32,186.02,133.1z"/>
								<path style="fill:#F57C00;" d="M173.637,136.839c-2.557-1.859-5.761-2.019-8.514-0.492
									c-0.827,0.458,0.046,1.643,0.865,1.189c2.146-1.19,4.746-0.993,6.718,0.441C173.47,138.532,174.403,137.396,173.637,136.839
									z"/>
								<path style="fill:#F57C00;" d="M186.02,138.53c-1.718-1.854-4.648-2.159-6.609-0.475c-0.681,0.585,0.139,1.724,0.825,1.135
									c1.329-1.142,3.42-1.162,4.65,0.165C185.493,140.01,186.634,139.192,186.02,138.53z"/>
								<path style="fill:#37474F;" d="M170.686,139.741c0.079-0.937-1.373-1.174-1.452-0.229c-0.078,0.935-0.157,1.87-0.235,2.805
									c-0.079,0.937,1.373,1.174,1.452,0.229C170.53,141.611,170.608,140.676,170.686,139.741z"/>
								<path style="fill:#37474F;" d="M183.873,141.245c0.079-0.937-1.373-1.174-1.452-0.229c-0.078,0.935-0.157,1.87-0.235,2.805
									c-0.079,0.937,1.373,1.174,1.452,0.229C183.716,143.115,183.795,142.18,183.873,141.245z"/>
								<path style="fill:#FFAB91;" d="M178.078,150.288c-0.68,0.369-1.412,0.394-2.127,0.115c-0.597-0.233-0.869,0.726-0.275,0.958
									c0.949,0.37,1.994,0.283,2.885-0.2C179.125,150.853,178.642,149.981,178.078,150.288z"/>
								<path style="fill:#FFAB91;" d="M155.56,150.57c-1.14-0.33-2.06-1.25-2.1-2.49c-0.01-0.32,0.04-0.63,0.15-0.92
									c0.92-0.19,1.83-0.42,2.72-0.68c-0.06,0.16-0.19,0.28-0.41,0.35c-1.09,0.33-1.41,1.92-0.13,2.28
									C156.68,149.37,156.46,150.83,155.56,150.57z"/>
							</g>
						</g>
						<path style="fill:#C62828;" d="M177.305,155.18c-1.459,0.714-3.278,0.277-4.238-1.042c-0.375-0.515-1.243-0.017-0.863,0.505
							c1.297,1.78,3.622,2.371,5.606,1.4C178.388,155.76,177.881,154.898,177.305,155.18z"/>
						<path style="fill:#26C6DA;" d="M155.897,339.508c-8.268,9.919-10.868,23.599-9.81,36.468
							c1.059,12.869,5.415,25.207,9.734,37.376c0.858,2.417,0.696,3.682,0.982,6.231c3.116,0.142,6.252,0.706,9.368,0.847
							c-7.908-27.312,5.771-57.163-0.357-84.929L155.897,339.508z"/>
						<path style="fill:#26C6DA;" d="M196.337,331.904c-12.291-3.958-25.951-1.254-37.49,4.541
							c-9.489,4.765-17.81,11.465-25.845,18.453c0.003,3.591,0.044,7.484,0.524,11.292c21.651-11.921,49.568-12.43,70.236-26.586
							L196.337,331.904z"/>
						<path style="fill:#00ACC1;" d="M160.497,279.839c-3.284-4.491-7.427-8.104-12.364-10.679c-1.14-0.595-2.152,1.131-1.009,1.727
							c4.62,2.41,8.568,5.753,11.646,9.962C159.522,281.877,161.258,280.88,160.497,279.839z"/>
						<path style="fill:#00ACC1;" d="M147.612,274.179c-1.143-0.292-2.287-0.583-3.43-0.875c-1.248-0.318-1.78,1.61-0.532,1.929
							c1.143,0.292,2.287,0.583,3.43,0.875C148.328,276.426,148.86,274.498,147.612,274.179z"/>
						<path style="fill:#00ACC1;" d="M166.558,335.548c-0.131-1.268-2.132-1.281-2,0c1.43,13.884,0.963,27.758-1.453,41.509
							c-0.221,1.259,1.706,1.799,1.929,0.532C167.48,363.664,168.007,349.616,166.558,335.548z"/>
						<path style="fill:#00ACC1;" d="M159.387,352.79c-1.052-1.62-2.104-3.24-3.156-4.86c-0.699-1.076-2.431-0.074-1.727,1.009
							c1.052,1.62,2.104,3.24,3.156,4.86C158.358,354.875,160.091,353.873,159.387,352.79z"/>
						<path style="fill:#00ACC1;" d="M178.516,274.498c-4.69,3.233-9.774,5.464-15.334,6.717c-1.255,0.283-0.724,2.212,0.532,1.929
							c5.706-1.287,10.995-3.599,15.812-6.919C180.578,275.499,179.579,273.765,178.516,274.498z"/>
						<path style="fill:#00ACC1;" d="M192.218,338.243c-3.798-6.306-7.596-12.613-11.395-18.919
							c-0.663-1.101-2.393-0.097-1.727,1.009c3.798,6.306,7.596,12.613,11.395,18.919
							C191.154,340.354,192.885,339.35,192.218,338.243z"/>
						<path style="fill:#00ACC1;" d="M188.363,341.313c-0.477-1.622-0.954-3.243-1.431-4.865c-0.362-1.232-2.293-0.708-1.928,0.532
							c0.477,1.622,0.954,3.243,1.431,4.865C186.797,343.077,188.728,342.553,188.363,341.313z"/>
						<path style="fill:#9E9D24;" d="M168.068,227.944c-7.245-9.232-13.042-19.37-17.33-30.295
							c-0.483-1.229-2.491-0.694-2.002,0.552c4.426,11.276,10.385,21.681,17.863,31.211
							C167.425,230.461,168.884,228.983,168.068,227.944z"/>
						<path style="fill:#9E9D24;" d="M169.894,249.309c-7-4.899-13.118-10.811-18.242-17.649c-0.763-1.018-2.5-0.022-1.727,1.009
							c5.339,7.126,11.664,13.261,18.959,18.367C169.942,251.776,170.942,250.042,169.894,249.309z"/>
						<path style="fill:#9E9D24;" d="M181.858,243.76c-1.635,0.789-3.368,1.133-5.18,1.086c-1.288-0.033-1.287,1.967,0,2
							c2.17,0.056,4.238-0.417,6.189-1.359C184.026,244.927,183.013,243.202,181.858,243.76z"/>
					</g>
					<path style="fill:#FFCCBC;" d="M149.53,188.649c2.925-3.368,3.807-8.466,2.19-12.663c-0.857-2.225-2.614-4.327-4.931-4.569
						c-1.437-0.15-2.84,0.431-4.174,1c-16.94,7.236-33.879,14.473-50.819,21.709c-1.627,3.328-0.259,7.824,2.929,9.597
						c3.363,1.87,7.492,0.687,11.127-0.533C120.198,198.378,135.185,193.461,149.53,188.649z"/>
					<g>
						<path style="fill:#1E88E5;" d="M123.126,431.929l-20.055-0.125c-0.216-0.001-0.39-0.178-0.389-0.394l1.778-285.675
							c0.001-0.216,0.177-0.39,0.394-0.389l20.055,0.125c0.216,0.001,0.39,0.178,0.389,0.394L123.52,431.54
							C123.518,431.756,123.342,431.93,123.126,431.929z"/>
						
							<rect x="108.627" y="145.406" transform="matrix(1 0.0062 -0.0062 1 1.7999 -0.7044)" style="fill:#42A5F5;" width="10.725" height="286.463"/>
						<polygon style="fill:#1976D2;" points="114.999,126.521 110.686,134.227 119.216,134.28 						"/>
						<polygon style="fill:#FFE0B2;" points="110.686,134.227 104.463,145.344 125.3,145.473 119.216,134.28 						"/>
					</g>
					<path style="fill:#FFCCBC;" d="M112.021,144.072c-1.973,0.879-3.423,2.325-4.299,4.038c0.389-2.415,2.032-4.537,4.6-5.681
						c1.76-0.784,0.236-3.37-1.514-2.59c-3.189,1.42-5.224,4.103-5.895,7.138c-0.176-3.023,1.579-5.825,4.677-7.204
						c1.76-0.784,0.236-3.37-1.514-2.59c-3.241,1.443-5.293,4.191-5.929,7.288c-0.381-3.188,1.39-6.196,4.636-7.641
						c1.76-0.784,0.236-3.37-1.514-2.59c-4.401,1.96-6.602,6.324-6.049,10.703c-1.278,4.151-0.034,9.002,3.145,11.976
						c0.821,0.768,1.773,1.426,2.851,1.747c1.078,0.321,2.294,0.277,3.27-0.282c2.311-1.321,2.288-4.387,0.81-6.313
						c0.02-2.437,1.505-4.655,4.023-5.776C114.83,145.622,113.522,143.404,112.021,144.072z"/>
					<path style="fill:#FFCCBC;" d="M102.788,153.922c-4.583,9.694-8.136,28.809-12.461,40.858c-1.369,3.814,0.506,8.066,4.31,9.463
						c0.093,0.034,0.187,0.068,0.281,0.1c4.201,1.441,8.678-1.36,9.487-5.728c2.727-14.726,5.67-42.107,5.67-42.107L102.788,153.922
						z"/>
					<g>
						<path style="fill:#455A64;" d="M177.317,421.681l-8.7-2.233l-12.335-0.214c0,0-1.943,4.711-1.943,10.081h20.681
							L177.317,421.681z"/>
						<path style="fill:#B0BEC5;" d="M187.326,429.316c-0.024-5.03-4.974-7.635-10.009-7.635l0,0c-5.035,0-8.25,2.605-8.273,7.635
							H187.326z"/>
					</g>
				</g>
				<path style="fill:#FFCCBC;" d="M245.705,126.524c1.256,0.129,2.71-0.268,3.792-1.035c1.082-0.767,1.764-1.886,1.781-2.917
					c1.148-0.565,2.31-1.152,3.255-1.937c0.945-0.785,1.648-1.825,1.564-2.779c-3.954,0.827-7.931,2.675-10.964,5.137
					L245.705,126.524z"/>
			</g>
			<g>
				<path style="fill:#455A64;" d="M432.996,429.306H46.448c-2.469,0-2.473,3.224,0,3.224h386.549
					C435.466,432.53,435.47,429.306,432.996,429.306z"/>
				<g>
					<g>
						<path style="fill:#0288D1;" d="M289.261,431.282c0.25-12.115,2.139-24.358,5.61-36.552c-1.567,0.631-3.083,1.338-4.545,2.111
							c-0.97,4.51-1.879,9.062-3.745,13.51c-0.142,0.34-0.973,0.329-0.99,0c-0.194-3.728,0.387-7.557,1.09-11.37
							c-2.358,1.535-4.533,3.259-6.489,5.147c1.105,3.721,2.262,7.441,3.206,11.194c1.009,4.008,2.396,7.951,2.641,12.096
							c0.028,0.477-0.975,0.804-1.263,0.343c-2.303-3.692-3.425-7.715-5.036-11.609c-1.12-2.708-2.06-5.474-3.006-8.234
							c-2.445,3.056-4.38,6.424-5.698,10.019c4.032,4.179,7.35,8.664,10.16,13.344H289.261z"/>
						<path style="fill:#01579B;" d="M295.597,431.282c0.013-1.186,0.032-2.373,0.064-3.561c0.181-6.648,0.673-13.355,1.646-20.049
							c0.486-3.346,0.91-6.711,1.682-10.061c0.359-1.559,0.753-3.113,1.155-4.666c-0.903,0.252-1.796,0.523-2.673,0.821
							c-0.155,0.527-0.309,1.053-0.458,1.58c-3.379,11.976-5.227,24.021-5.519,35.935H295.597z"/>
						<path style="fill:#01579B;" d="M304.707,431.282c0.297-13.128-0.055-26.2-1.053-39.191c-0.54,0.111-1.075,0.23-1.607,0.357
							c-0.24,2.203-0.435,4.406-0.694,6.601c-0.43,3.644-0.842,7.28-1.169,10.92c-0.641,7.131-0.895,14.239-0.797,21.313H304.707z"
							/>
						<path style="fill:#0288D1;" d="M339.162,431.282c4.824-6.326,10.323-12.473,16.432-18.357
							c-0.394-0.704-0.816-1.395-1.259-2.076c-1.441,1.603-2.816,3.319-4.687,4.677c-0.324,0.236-0.916,0.04-0.825-0.248
							c0.65-2.045,2.661-4.12,4.28-5.966c0.031-0.036,0.064-0.072,0.096-0.108c-0.594-0.813-1.223-1.605-1.885-2.376
							c-0.304,0.472-0.613,0.944-0.912,1.417c-2.259,3.574-4.302,7.21-6.854,10.718c-0.369,0.508-1.586,0.461-1.417-0.133
							c1.372-4.817,3.95-9.675,6.933-14.411c-1.35-1.332-2.804-2.586-4.357-3.75c-3.543,10.194-6.87,20.4-10.082,30.612H339.162z"/>
						<path style="fill:#0288D1;" d="M307.18,431.282h8.381c5.489-12.192,12.033-24.259,19.597-36.115
							c-1.418-0.61-2.882-1.156-4.382-1.641c-0.275,0.415-0.559,0.828-0.83,1.244c-2.715,4.169-5.312,8.381-7.613,12.628
							c-2.335,4.31-4.132,8.776-6.873,13c-0.405,0.624-1.7,0.486-1.604-0.151c0.66-4.385,2.909-8.928,5.008-13.229
							c2.138-4.381,4.479-8.724,7.186-13.012c0.323-0.512,0.662-1.021,0.992-1.532c-1.375-0.332-2.776-0.611-4.201-0.834
							c-0.479,1.41-0.852,2.827-1.235,4.258c-0.152,0.569-1.457,0.73-1.528,0.138c-0.183-1.538,0.005-3.124,0.439-4.705
							c-1.236-0.138-2.487-0.234-3.752-0.287c-1.747,5.736-3.072,11.473-4.409,17.221c-0.17,0.729-1.622,0.68-1.609,0
							c0.105-5.707,1.139-11.506,2.718-17.261c-2.519,0.047-4.987,0.267-7.388,0.645c0.107,1.353,0.214,2.706,0.307,4.061
							C307.194,407.513,307.435,419.376,307.18,431.282z"/>
						<path style="fill:#01579B;" d="M359.817,431.282c0.05-0.732,0.076-1.47,0.074-2.213c-0.002-0.714-0.035-1.422-0.082-2.126
							c-1.725,1.425-3.407,2.873-5.05,4.339H359.817z"/>
						<path style="fill:#01579B;" d="M350.511,431.282c2.802-2.68,5.759-5.294,8.868-7.83c-0.227-1.274-0.531-2.526-0.904-3.756
							c-0.832,0.784-1.647,1.576-2.435,2.382c-1.584,1.62-3.032,3.703-5.232,4.997c-0.258,0.152-0.616,0.038-0.58-0.174
							c0.311-1.812,2.308-3.782,3.748-5.392c1.201-1.342,2.455-2.675,3.766-3.981c-0.223-0.586-0.457-1.166-0.712-1.739
							c-5.07,4.999-9.693,10.178-13.829,15.493H350.511z"/>
						<path style="fill:#01579B;" d="M278.972,431.282c-2.446-4.017-5.254-7.89-8.54-11.536c-0.483,1.593-0.843,3.227-1.079,4.893
							c2.143,2.05,3.977,4.265,5.335,6.643H278.972z"/>
						<path style="fill:#01579B;" d="M273.15,431.282c-1.361-1.179-2.713-2.361-4.084-3.532c-0.022,0.503-0.037,1.008-0.036,1.516
							c0.002,0.676,0.026,1.348,0.069,2.016H273.15z"/>
						<path style="fill:#01579B;" d="M323.56,431.282c1.021-2.586,2.075-5.169,3.168-7.749c2.231-5.262,4.681-10.505,7.217-15.732
							c1.691-3.486,3.26-7.137,5.254-10.656c-0.349-0.19-0.694-0.385-1.049-0.568c-7.292,11.408-13.622,22.999-19.01,34.704H323.56z
							"/>
						<path style="fill:#01579B;" d="M330.893,431.282c3.421-10.913,6.965-21.821,10.759-32.711
							c-0.357-0.225-0.726-0.437-1.091-0.652c-0.552,1.074-1.116,2.146-1.639,3.216c-1.421,2.907-2.823,5.817-4.169,8.734
							c-3.278,7.103-6.201,14.248-8.863,21.414H330.893z"/>
					</g>
				</g>
			</g>
		</g>
	</g>
</g>
<g id="DESIGNED_BY_FREEPIK">
	<g>
		<g id="XMLID_319_">
			<g id="XMLID_338_">
				<path id="XMLID_346_" d="M260.315,467.402c-0.441,0.452-0.82,0.95-1.132,1.483l-0.475-0.246
					c-0.068-0.304-0.357-0.513-0.673-0.476c-0.338,0.04-0.58,0.346-0.54,0.684c0.04,0.338,0.346,0.58,0.684,0.54
					c0.067-0.008,0.129-0.026,0.187-0.053l0.461,0.239c-0.256,0.566-0.442,1.162-0.551,1.78l0.762,0.134
					c0.235-1.333,0.867-2.559,1.829-3.545L260.315,467.402z"/>
				<path id="XMLID_345_" d="M265.918,465.052c-0.175,0-0.348,0.006-0.52,0.017l-0.075-0.639c0.191-0.152,0.302-0.397,0.271-0.658
					c-0.047-0.401-0.411-0.688-0.812-0.641c-0.401,0.047-0.688,0.411-0.641,0.812c0.031,0.259,0.193,0.471,0.413,0.575l0.075,0.637
					c-0.729,0.119-1.432,0.339-2.103,0.659l0.334,0.698c0.953-0.456,1.982-0.687,3.058-0.687c0.507,0,1.014,0.054,1.506,0.161
					l0.164-0.756C267.042,465.112,266.48,465.052,265.918,465.052z"/>
				<path id="XMLID_344_" d="M272.658,467.653c0.338-0.041,0.578-0.349,0.537-0.686c-0.041-0.338-0.349-0.578-0.686-0.536
					c-0.316,0.039-0.547,0.31-0.541,0.622l-0.425,0.371c-0.427-0.439-0.908-0.83-1.437-1.163l-0.413,0.655
					c1.158,0.73,2.063,1.762,2.617,2.986l0.705-0.319c-0.256-0.566-0.579-1.094-0.962-1.577l0.411-0.358
					C272.526,467.658,272.592,467.661,272.658,467.653z"/>
				<path id="XMLID_343_" d="M265.359,475.474c-0.394,0.024-0.791,0.035-1.181,0.035c-0.899,0-1.769-0.062-2.53-0.183
					c-0.399-0.063-0.864-0.158-1.297-0.298c1.068,1.9,3.134,3.19,5.501,3.19c2.915,0,5.372-1.956,6.074-4.598
					c-0.696,0.459-1.537,0.843-2.51,1.146C268.212,475.143,266.808,475.387,265.359,475.474z"/>
				<path id="XMLID_339_" d="M265.918,466.6c-3.422,0-6.207,2.722-6.207,6.068c0,0.434,0.047,0.867,0.14,1.288
					c0.688,0.493,2.762,0.908,5.459,0.746c2.94-0.177,5.408-0.977,6.812-2.204c-0.006-0.199-0.021-0.398-0.046-0.594
					C271.688,468.88,269.041,466.6,265.918,466.6z M263.714,473.251c-1.041,0-1.888-0.847-1.888-1.888
					c0-1.041,0.847-1.889,1.888-1.889s1.888,0.847,1.888,1.889C265.602,472.404,264.755,473.251,263.714,473.251z M268.55,472.324
					c-0.766,0-1.389-0.623-1.389-1.389c0-0.766,0.623-1.389,1.389-1.389c0.766,0,1.389,0.623,1.389,1.389
					C269.939,471.701,269.316,472.324,268.55,472.324z"/>
			</g>
			<path id="XMLID_336_" d="M282.256,468.506c-0.301-0.118-0.822-0.315-1.411-0.242c-0.562,0.07-0.861,0.348-0.861,1.028v0.884
				h2.274v1.753h-2.274v5.569h-1.972v-5.569h-1.368v-1.753h1.368v-0.907c0-1.715,0.914-2.841,2.622-2.841
				c0.656,0,1.181,0.124,1.623,0.315L282.256,468.506z"/>
			<path id="XMLID_334_" d="M287.057,471.908c-0.18-0.03-0.365-0.047-0.537-0.047c-0.914,0-1.541,0.559-1.541,1.647v3.99h-1.972
				v-7.322h1.912v0.801c0.461-0.688,1.164-0.997,2.063-0.997c0.423,0,0.866,0.13,1.117,0.344L287.057,471.908z"/>
			<path id="XMLID_331_" d="M294.885,473.826c0,0.227-0.015,0.499-0.038,0.665h-5.191c0.212,1.058,0.952,1.519,1.882,1.519
				c0.635,0,1.322-0.257,1.851-0.703l1.156,1.269c-0.831,0.763-1.889,1.111-3.121,1.111c-2.244,0-3.801-1.526-3.801-3.831
				c0-2.305,1.511-3.876,3.702-3.876C293.434,469.979,294.877,471.544,294.885,473.826z M289.663,473.146h3.242
				c-0.181-0.937-0.748-1.466-1.594-1.466C290.381,471.68,289.837,472.239,289.663,473.146z"/>
			<path id="XMLID_328_" d="M302.698,473.826c0,0.227-0.015,0.499-0.038,0.665h-5.191c0.211,1.058,0.952,1.519,1.882,1.519
				c0.635,0,1.322-0.257,1.851-0.703l1.156,1.269c-0.831,0.763-1.889,1.111-3.121,1.111c-2.244,0-3.801-1.526-3.801-3.831
				c0-2.305,1.511-3.876,3.703-3.876C301.247,469.979,302.691,471.544,302.698,473.826z M297.477,473.146h3.242
				c-0.181-0.937-0.748-1.466-1.594-1.466C298.195,471.68,297.651,472.239,297.477,473.146z"/>
			<path id="XMLID_325_" d="M311.218,473.833c0,2.199-1.526,3.854-3.544,3.854c-0.982,0-1.677-0.385-2.154-0.952v3.786h-1.965
				v-10.344h1.927v0.809c0.476-0.597,1.179-1.005,2.184-1.005C309.692,469.979,311.218,471.634,311.218,473.833z M305.423,473.833
				c0,1.156,0.763,2.017,1.881,2.017c1.164,0,1.889-0.899,1.889-2.017c0-1.118-0.725-2.017-1.889-2.017
				C306.186,471.816,305.423,472.677,305.423,473.833z"/>
			<path id="XMLID_322_" d="M314.387,467.78c0,0.71-0.552,1.254-1.262,1.254c-0.71,0-1.254-0.544-1.254-1.254
				c0-0.71,0.544-1.269,1.254-1.269C313.835,466.511,314.387,467.07,314.387,467.78z M314.122,477.498h-1.972v-7.322h1.972V477.498z
				"/>
			<path id="XMLID_320_" d="M317.413,472.783l2.758-2.607h2.418l-3.552,3.446l3.574,3.876h-2.426l-2.773-2.962v2.962h-1.972v-10.881
				h1.972V472.783z"/>
		</g>
		<g>
			<path d="M183.04,477.431v-1.077c-0.538,0.733-1.421,1.256-2.438,1.256c-1.884,0-3.215-1.436-3.215-3.783
				c0-2.303,1.316-3.799,3.215-3.799c0.972,0,1.855,0.479,2.438,1.271v-3.843h1.122v9.974H183.04z M183.04,475.473v-3.275
				c-0.404-0.628-1.271-1.167-2.169-1.167c-1.45,0-2.318,1.196-2.318,2.797c0,1.6,0.867,2.781,2.318,2.781
				C181.769,476.609,182.637,476.101,183.04,475.473z"/>
			<path d="M185.612,473.813c0-2.094,1.495-3.784,3.559-3.784c2.184,0,3.469,1.705,3.469,3.873v0.284h-5.847
				c0.09,1.361,1.047,2.497,2.602,2.497c0.822,0,1.66-0.329,2.228-0.912l0.538,0.733c-0.718,0.718-1.69,1.107-2.871,1.107
				C187.153,477.611,185.612,476.071,185.612,473.813z M189.157,470.957c-1.541,0-2.303,1.301-2.363,2.408h4.741
				C191.519,472.287,190.801,470.957,189.157,470.957z"/>
			<path d="M193.448,476.474l0.583-0.807c0.479,0.553,1.391,1.032,2.378,1.032c1.107,0,1.705-0.524,1.705-1.241
				c0-1.749-4.471-0.673-4.471-3.35c0-1.121,0.972-2.078,2.692-2.078c1.226,0,2.094,0.464,2.677,1.047l-0.524,0.778
				c-0.433-0.524-1.226-0.912-2.153-0.912c-0.987,0-1.6,0.494-1.6,1.137c0,1.585,4.471,0.538,4.471,3.35
				c0,1.211-0.972,2.183-2.841,2.183C195.183,477.611,194.181,477.252,193.448,476.474z"/>
			<path d="M200.462,468.429c0-0.419,0.344-0.763,0.748-0.763c0.419,0,0.763,0.344,0.763,0.763c0,0.419-0.344,0.748-0.763,0.748
				C200.806,469.177,200.462,468.848,200.462,468.429z M200.656,477.431v-7.223h1.122v7.223H200.656z"/>
			<path d="M203.632,479.286l0.568-0.837c0.598,0.718,1.316,0.987,2.348,0.987c1.196,0,2.318-0.583,2.318-2.168v-1.032
				c-0.523,0.733-1.406,1.286-2.423,1.286c-1.884,0-3.215-1.406-3.215-3.739c0-2.318,1.316-3.754,3.215-3.754
				c0.972,0,1.84,0.479,2.423,1.271v-1.092h1.121v7.014c0,2.393-1.675,3.14-3.439,3.14
				C205.321,480.363,204.484,480.123,203.632,479.286z M208.866,475.353v-3.155c-0.389-0.628-1.256-1.167-2.153-1.167
				c-1.451,0-2.318,1.152-2.318,2.752c0,1.585,0.867,2.752,2.318,2.752C207.61,476.534,208.477,475.981,208.866,475.353z"/>
			<path d="M216.732,477.431v-4.726c0-1.271-0.643-1.675-1.615-1.675c-0.883,0-1.72,0.538-2.138,1.122v5.279h-1.122v-7.223h1.122
				v1.047c0.508-0.598,1.495-1.226,2.572-1.226c1.511,0,2.303,0.763,2.303,2.333v5.069H216.732z"/>
			<path d="M219.303,473.813c0-2.094,1.495-3.784,3.559-3.784c2.183,0,3.469,1.705,3.469,3.873v0.284h-5.847
				c0.09,1.361,1.047,2.497,2.602,2.497c0.822,0,1.66-0.329,2.228-0.912l0.538,0.733c-0.718,0.718-1.69,1.107-2.871,1.107
				C220.844,477.611,219.303,476.071,219.303,473.813z M222.848,470.957c-1.54,0-2.303,1.301-2.363,2.408h4.74
				C225.21,472.287,224.492,470.957,222.848,470.957z"/>
			<path d="M233.002,477.431v-1.077c-0.538,0.733-1.421,1.256-2.438,1.256c-1.884,0-3.215-1.436-3.215-3.783
				c0-2.303,1.316-3.799,3.215-3.799c0.972,0,1.855,0.479,2.438,1.271v-3.843h1.121v9.974H233.002z M233.002,475.473v-3.275
				c-0.404-0.628-1.271-1.167-2.169-1.167c-1.451,0-2.318,1.196-2.318,2.797c0,1.6,0.867,2.781,2.318,2.781
				C231.73,476.609,232.598,476.101,233.002,475.473z"/>
			<path d="M239.476,477.431v-9.974h1.122v3.843c0.583-0.793,1.451-1.271,2.438-1.271c1.884,0,3.215,1.495,3.215,3.799
				c0,2.348-1.331,3.783-3.215,3.783c-1.017,0-1.899-0.523-2.438-1.256v1.077H239.476z M242.751,476.609
				c1.466,0,2.333-1.181,2.333-2.781c0-1.6-0.867-2.797-2.333-2.797c-0.882,0-1.764,0.538-2.153,1.167v3.275
				C240.987,476.101,241.869,476.609,242.751,476.609z"/>
			<path d="M247.477,479.241c0.164,0.075,0.434,0.12,0.613,0.12c0.493,0,0.822-0.165,1.077-0.763l0.479-1.092l-3.021-7.298h1.211
				l2.408,5.922l2.393-5.922h1.226l-3.619,8.689c-0.434,1.047-1.167,1.451-2.124,1.465c-0.239,0-0.613-0.045-0.822-0.105
				L247.477,479.241z"/>
		</g>
	</g>
</g>
</svg>
